<svg height="64" viewBox="0 0 64 63.999999" width="64" xmlns="http://www.w3.org/2000/svg"><g fill="#8a4182" stroke-width=".019859" transform="matrix(2.750384 0 0 2.750384 -38.503467 -50.511514)"><path d="m24.731175 28.00034h1.802165l.447672-.616311v-4.828016h-2.69739v4.828413l.447533.615933"/><path d="m25.235384 37.415486h.747497v-3.670261h-.747497zm-6.664536-4.876073-.230876-.710957 3.490343-1.133726.230776.710957-3.490144 1.133726m4.503527-5.586613-2.156839-2.969253.604991-.439471 2.156839 2.969452-.604991.439292m5.1531.02723-.604832-.439371 2.157038-2.969452.604991.439272-2.157237 2.96965m4.451696 5.60389-3.490541-1.134341.230936-.711096 3.490342 1.134341-.230757.711096m-5.541335-4.144484.557132 1.714192.72452.235046 4.591699-1.491716-.833465-2.56533-4.592095 1.492173-.44791.615695m.328063 2.42493-1.458215 1.059256.000199.761576 2.83779 3.906181 2.182457-1.58531-2.838386-3.906379zm-2.205691 1.059653-1.457818-1.059653-.724599.235821-2.83779 3.905982 2.18206 1.58527 2.838187-3.906181v-.761219m-1.689051-1.770451.556814-1.713874-.44783-.61641-4.591699-1.491935-.833583 2.565331 4.592493 1.492113.723924-.235284m2.063504-11.788449c-6.415311 0-11.634739 5.218435-11.634739 11.632753 0 6.416701 5.219428 11.636725 11.634739 11.636725 6.414715 0 11.633349-5.220024 11.633349-11.636725 0-6.414318-5.218634-11.632753-11.633349-11.632753zm0 2.355425c5.122915 0 9.277725 4.153023 9.277725 9.277328 0 5.126093-4.15481 9.280903-9.277725 9.280903-5.124901 0-9.278917-4.15481-9.278917-9.280903 0-5.124305 4.154016-9.277328 9.278917-9.277328"/></g></svg>